<mxfile host="app.diagrams.net" modified="2020-09-02T19:00:48.266Z" agent="5.0 (X11)" etag="KpRuVJTdeZVfPn6L_bhC" version="13.6.6" type="github">
  <diagram id="OuiIO1zcn7LN6MLLuFbU" name="Page-1">
    <mxGraphModel dx="1055" dy="506" grid="1" gridSize="10" guides="1" tooltips="1" connect="1" arrows="1" fold="1" page="1" pageScale="1" pageWidth="827" pageHeight="1169" math="0" shadow="0">
      <root>
        <mxCell id="0" />
        <mxCell id="1" parent="0" />
        <mxCell id="faf0zKIODug6vjrXyhOL-34" value="Horizontal Flow Layout" style="swimlane;html=1;startSize=20;horizontal=0;childLayout=flowLayout;flowOrientation=west;resizable=0;interRankCellSpacing=50;containerType=tree;" vertex="1" parent="1">
          <mxGeometry width="860" height="430" as="geometry" />
        </mxCell>
        <UserObject label="KIWI" link="https://github.com/OSInside/kiwi" id="faf0zKIODug6vjrXyhOL-1">
          <mxCell style="rounded=0;whiteSpace=wrap;html=1;" vertex="1" parent="faf0zKIODug6vjrXyhOL-34">
            <mxGeometry x="720" y="170" width="120" height="60" as="geometry" />
          </mxCell>
        </UserObject>
        <mxCell id="faf0zKIODug6vjrXyhOL-32" style="edgeStyle=orthogonalEdgeStyle;rounded=0;orthogonalLoop=1;jettySize=auto;html=1;noEdgeStyle=1;orthogonal=1;" edge="1" parent="faf0zKIODug6vjrXyhOL-34" source="faf0zKIODug6vjrXyhOL-2" target="faf0zKIODug6vjrXyhOL-1">
          <mxGeometry relative="1" as="geometry">
            <Array as="points">
              <mxPoint x="682" y="170" />
              <mxPoint x="706" y="193.75" />
            </Array>
          </mxGeometry>
        </mxCell>
        <UserObject label="dnf" link="https://github.com/rpm-software-management/dnf" id="faf0zKIODug6vjrXyhOL-2">
          <mxCell style="rounded=0;whiteSpace=wrap;html=1;" vertex="1" parent="faf0zKIODug6vjrXyhOL-34">
            <mxGeometry x="550" y="140" width="120" height="60" as="geometry" />
          </mxCell>
        </UserObject>
        <mxCell id="faf0zKIODug6vjrXyhOL-33" style="edgeStyle=orthogonalEdgeStyle;rounded=0;orthogonalLoop=1;jettySize=auto;html=1;noEdgeStyle=1;orthogonal=1;" edge="1" parent="faf0zKIODug6vjrXyhOL-34" source="faf0zKIODug6vjrXyhOL-4" target="faf0zKIODug6vjrXyhOL-1">
          <mxGeometry relative="1" as="geometry">
            <Array as="points">
              <mxPoint x="682" y="290" />
              <mxPoint x="708" y="218.75" />
            </Array>
          </mxGeometry>
        </mxCell>
        <UserObject label="zypper" link="https://packages.ubuntu.com/focal/zypper" id="faf0zKIODug6vjrXyhOL-4">
          <mxCell style="rounded=0;whiteSpace=wrap;html=1;" vertex="1" parent="faf0zKIODug6vjrXyhOL-34">
            <mxGeometry x="550" y="260" width="120" height="60" as="geometry" />
          </mxCell>
        </UserObject>
        <UserObject label="apt" link="https://packages.ubuntu.com/focal/apt" id="faf0zKIODug6vjrXyhOL-6">
          <mxCell style="rounded=0;whiteSpace=wrap;html=1;" vertex="1" parent="faf0zKIODug6vjrXyhOL-34">
            <mxGeometry x="210" y="20" width="120" height="60" as="geometry" />
          </mxCell>
        </UserObject>
        <mxCell id="faf0zKIODug6vjrXyhOL-10" style="edgeStyle=orthogonalEdgeStyle;rounded=0;orthogonalLoop=1;jettySize=auto;html=1;noEdgeStyle=1;orthogonal=1;" edge="1" parent="faf0zKIODug6vjrXyhOL-34" source="faf0zKIODug6vjrXyhOL-7" target="faf0zKIODug6vjrXyhOL-6">
          <mxGeometry relative="1" as="geometry">
            <Array as="points">
              <mxPoint x="172" y="50" />
              <mxPoint x="198" y="50" />
            </Array>
          </mxGeometry>
        </mxCell>
        <UserObject label="dpkg" link="https://packages.ubuntu.com/focal/dpkg" id="faf0zKIODug6vjrXyhOL-7">
          <mxCell style="rounded=0;whiteSpace=wrap;html=1;" vertex="1" parent="faf0zKIODug6vjrXyhOL-34">
            <mxGeometry x="40" y="20" width="120" height="60" as="geometry" />
          </mxCell>
        </UserObject>
        <mxCell id="faf0zKIODug6vjrXyhOL-31" style="edgeStyle=orthogonalEdgeStyle;rounded=0;orthogonalLoop=1;jettySize=auto;html=1;noEdgeStyle=1;orthogonal=1;" edge="1" parent="faf0zKIODug6vjrXyhOL-34" source="faf0zKIODug6vjrXyhOL-8" target="faf0zKIODug6vjrXyhOL-1">
          <mxGeometry relative="1" as="geometry">
            <Array as="points">
              <mxPoint x="512" y="65" />
              <mxPoint x="525" y="110" />
              <mxPoint x="695" y="110" />
              <mxPoint x="708" y="181.25" />
            </Array>
          </mxGeometry>
        </mxCell>
        <UserObject label="debootstrap" link="https://packages.ubuntu.com/focal/debootstrap" id="faf0zKIODug6vjrXyhOL-8">
          <mxCell style="rounded=0;whiteSpace=wrap;html=1;" vertex="1" parent="faf0zKIODug6vjrXyhOL-34">
            <mxGeometry x="380" y="35" width="120" height="60" as="geometry" />
          </mxCell>
        </UserObject>
        <mxCell id="faf0zKIODug6vjrXyhOL-9" style="edgeStyle=orthogonalEdgeStyle;rounded=0;orthogonalLoop=1;jettySize=auto;html=1;noEdgeStyle=1;orthogonal=1;" edge="1" parent="faf0zKIODug6vjrXyhOL-34" source="faf0zKIODug6vjrXyhOL-6" target="faf0zKIODug6vjrXyhOL-8">
          <mxGeometry relative="1" as="geometry">
            <Array as="points">
              <mxPoint x="342" y="50" />
              <mxPoint x="368" y="65" />
            </Array>
          </mxGeometry>
        </mxCell>
        <UserObject label="libsolv" link="https://packages.ubuntu.com/focal/libsolv0" id="faf0zKIODug6vjrXyhOL-12">
          <mxCell style="rounded=0;whiteSpace=wrap;html=1;" vertex="1" parent="faf0zKIODug6vjrXyhOL-34">
            <mxGeometry x="210" y="350" width="120" height="60" as="geometry" />
          </mxCell>
        </UserObject>
        <UserObject label="librepo" link="https://github.com/rpm-software-management/librepo" id="faf0zKIODug6vjrXyhOL-13">
          <mxCell style="rounded=0;whiteSpace=wrap;html=1;" vertex="1" parent="faf0zKIODug6vjrXyhOL-34">
            <mxGeometry x="210" y="110" width="120" height="60" as="geometry" />
          </mxCell>
        </UserObject>
        <mxCell id="faf0zKIODug6vjrXyhOL-18" style="edgeStyle=orthogonalEdgeStyle;rounded=0;orthogonalLoop=1;jettySize=auto;html=1;noEdgeStyle=1;orthogonal=1;" edge="1" parent="faf0zKIODug6vjrXyhOL-34" source="faf0zKIODug6vjrXyhOL-15" target="faf0zKIODug6vjrXyhOL-2">
          <mxGeometry relative="1" as="geometry">
            <Array as="points">
              <mxPoint x="512" y="155" />
              <mxPoint x="538" y="153.33333333333334" />
            </Array>
          </mxGeometry>
        </mxCell>
        <UserObject label="libdnf" link="https://github.com/rpm-software-management/libdnf" id="faf0zKIODug6vjrXyhOL-15">
          <mxCell style="rounded=0;whiteSpace=wrap;html=1;" vertex="1" parent="faf0zKIODug6vjrXyhOL-34">
            <mxGeometry x="380" y="125" width="120" height="60" as="geometry" />
          </mxCell>
        </UserObject>
        <mxCell id="faf0zKIODug6vjrXyhOL-21" style="edgeStyle=orthogonalEdgeStyle;rounded=0;orthogonalLoop=1;jettySize=auto;html=1;noEdgeStyle=1;orthogonal=1;" edge="1" parent="faf0zKIODug6vjrXyhOL-34" source="faf0zKIODug6vjrXyhOL-12" target="faf0zKIODug6vjrXyhOL-15">
          <mxGeometry relative="1" as="geometry">
            <Array as="points">
              <mxPoint x="342" y="367.5" />
              <mxPoint x="368" y="173.75" />
            </Array>
          </mxGeometry>
        </mxCell>
        <mxCell id="faf0zKIODug6vjrXyhOL-22" style="edgeStyle=orthogonalEdgeStyle;rounded=0;orthogonalLoop=1;jettySize=auto;html=1;noEdgeStyle=1;orthogonal=1;" edge="1" parent="faf0zKIODug6vjrXyhOL-34" source="faf0zKIODug6vjrXyhOL-13" target="faf0zKIODug6vjrXyhOL-15">
          <mxGeometry relative="1" as="geometry">
            <Array as="points">
              <mxPoint x="342" y="140" />
              <mxPoint x="368" y="136.25" />
            </Array>
          </mxGeometry>
        </mxCell>
        <mxCell id="faf0zKIODug6vjrXyhOL-17" style="edgeStyle=orthogonalEdgeStyle;rounded=0;orthogonalLoop=1;jettySize=auto;html=1;noEdgeStyle=1;orthogonal=1;" edge="1" parent="faf0zKIODug6vjrXyhOL-34" source="faf0zKIODug6vjrXyhOL-16" target="faf0zKIODug6vjrXyhOL-1">
          <mxGeometry relative="1" as="geometry">
            <Array as="points">
              <mxPoint x="512" y="287.5" />
              <mxPoint x="525" y="230" />
              <mxPoint x="695" y="230" />
              <mxPoint x="706" y="206.25" />
            </Array>
          </mxGeometry>
        </mxCell>
        <mxCell id="faf0zKIODug6vjrXyhOL-25" style="edgeStyle=orthogonalEdgeStyle;rounded=0;orthogonalLoop=1;jettySize=auto;html=1;noEdgeStyle=1;orthogonal=1;" edge="1" parent="faf0zKIODug6vjrXyhOL-34" source="faf0zKIODug6vjrXyhOL-16" target="faf0zKIODug6vjrXyhOL-2">
          <mxGeometry relative="1" as="geometry">
            <Array as="points">
              <mxPoint x="512" y="262.5" />
              <mxPoint x="538" y="186.66666666666666" />
            </Array>
          </mxGeometry>
        </mxCell>
        <UserObject label="python3" link="https://packages.ubuntu.com/focal/python3" id="faf0zKIODug6vjrXyhOL-16">
          <mxCell style="rounded=0;whiteSpace=wrap;html=1;" vertex="1" parent="faf0zKIODug6vjrXyhOL-34">
            <mxGeometry x="380" y="245" width="120" height="60" as="geometry" />
          </mxCell>
        </UserObject>
        <mxCell id="faf0zKIODug6vjrXyhOL-20" style="edgeStyle=orthogonalEdgeStyle;rounded=0;orthogonalLoop=1;jettySize=auto;html=1;noEdgeStyle=1;orthogonal=1;" edge="1" parent="faf0zKIODug6vjrXyhOL-34" source="faf0zKIODug6vjrXyhOL-19" target="faf0zKIODug6vjrXyhOL-15">
          <mxGeometry relative="1" as="geometry">
            <Array as="points">
              <mxPoint x="172" y="303.3333333333333" />
              <mxPoint x="185" y="200" />
              <mxPoint x="355" y="200" />
              <mxPoint x="366" y="148.75" />
            </Array>
          </mxGeometry>
        </mxCell>
        <mxCell id="faf0zKIODug6vjrXyhOL-26" style="edgeStyle=orthogonalEdgeStyle;rounded=0;orthogonalLoop=1;jettySize=auto;html=1;noEdgeStyle=1;orthogonal=1;" edge="1" parent="faf0zKIODug6vjrXyhOL-34" source="faf0zKIODug6vjrXyhOL-19" target="faf0zKIODug6vjrXyhOL-2">
          <mxGeometry relative="1" as="geometry">
            <mxPoint x="-290" y="120" as="targetPoint" />
            <Array as="points">
              <mxPoint x="174" y="320" />
              <mxPoint x="185" y="320" />
              <mxPoint x="355" y="320" />
              <mxPoint x="355" y="215" />
              <mxPoint x="525" y="215" />
              <mxPoint x="536" y="170" />
            </Array>
          </mxGeometry>
        </mxCell>
        <mxCell id="faf0zKIODug6vjrXyhOL-27" style="edgeStyle=orthogonalEdgeStyle;rounded=0;orthogonalLoop=1;jettySize=auto;html=1;noEdgeStyle=1;orthogonal=1;" edge="1" parent="faf0zKIODug6vjrXyhOL-34" source="faf0zKIODug6vjrXyhOL-19" target="faf0zKIODug6vjrXyhOL-12">
          <mxGeometry relative="1" as="geometry">
            <Array as="points">
              <mxPoint x="172" y="336.6666666666667" />
              <mxPoint x="198" y="380" />
            </Array>
          </mxGeometry>
        </mxCell>
        <UserObject label="rpm" link="https://packages.ubuntu.com/focal/rpm" id="faf0zKIODug6vjrXyhOL-19">
          <mxCell style="rounded=0;whiteSpace=wrap;html=1;" vertex="1" parent="faf0zKIODug6vjrXyhOL-34">
            <mxGeometry x="40" y="290" width="120" height="60" as="geometry" />
          </mxCell>
        </UserObject>
        <mxCell id="faf0zKIODug6vjrXyhOL-24" style="edgeStyle=orthogonalEdgeStyle;rounded=0;orthogonalLoop=1;jettySize=auto;html=1;noEdgeStyle=1;orthogonal=1;" edge="1" parent="faf0zKIODug6vjrXyhOL-34" source="faf0zKIODug6vjrXyhOL-23" target="faf0zKIODug6vjrXyhOL-15">
          <mxGeometry relative="1" as="geometry">
            <Array as="points">
              <mxPoint x="342" y="260" />
              <mxPoint x="366" y="161.25" />
            </Array>
          </mxGeometry>
        </mxCell>
        <UserObject label="libmodulemd" link="https://github.com/fedora-modularity/libmodulemd" id="faf0zKIODug6vjrXyhOL-23">
          <mxCell style="rounded=0;whiteSpace=wrap;html=1;" vertex="1" parent="faf0zKIODug6vjrXyhOL-34">
            <mxGeometry x="210" y="230" width="120" height="60" as="geometry" />
          </mxCell>
        </UserObject>
        <mxCell id="faf0zKIODug6vjrXyhOL-30" style="edgeStyle=orthogonalEdgeStyle;rounded=0;orthogonalLoop=1;jettySize=auto;html=1;noEdgeStyle=1;orthogonal=1;" edge="1" parent="faf0zKIODug6vjrXyhOL-34" source="faf0zKIODug6vjrXyhOL-28" target="faf0zKIODug6vjrXyhOL-4">
          <mxGeometry relative="1" as="geometry">
            <Array as="points">
              <mxPoint x="512" y="365" />
              <mxPoint x="538" y="290" />
            </Array>
          </mxGeometry>
        </mxCell>
        <UserObject label="&lt;div&gt;libzypp&lt;/div&gt;" link="https://packages.ubuntu.com/focal/libzypp1702" id="faf0zKIODug6vjrXyhOL-28">
          <mxCell style="rounded=0;whiteSpace=wrap;html=1;" vertex="1" parent="faf0zKIODug6vjrXyhOL-34">
            <mxGeometry x="380" y="335" width="120" height="60" as="geometry" />
          </mxCell>
        </UserObject>
        <mxCell id="faf0zKIODug6vjrXyhOL-29" style="edgeStyle=orthogonalEdgeStyle;rounded=0;orthogonalLoop=1;jettySize=auto;html=1;noEdgeStyle=1;orthogonal=1;" edge="1" parent="faf0zKIODug6vjrXyhOL-34" source="faf0zKIODug6vjrXyhOL-12" target="faf0zKIODug6vjrXyhOL-28">
          <mxGeometry relative="1" as="geometry">
            <Array as="points">
              <mxPoint x="342" y="392.5" />
              <mxPoint x="368" y="365" />
            </Array>
          </mxGeometry>
        </mxCell>
        <mxCell id="faf0zKIODug6vjrXyhOL-43" value="Horizontal Flow Layout" style="swimlane;html=1;startSize=20;horizontal=0;childLayout=flowLayout;flowOrientation=west;resizable=0;interRankCellSpacing=50;containerType=tree;" vertex="1" parent="1">
          <mxGeometry y="460" width="520" height="190" as="geometry" />
        </mxCell>
        <mxCell id="faf0zKIODug6vjrXyhOL-52" value="cloud-init" style="rounded=0;whiteSpace=wrap;html=1;" vertex="1" parent="faf0zKIODug6vjrXyhOL-43">
          <mxGeometry x="380" y="110" width="120" height="60" as="geometry" />
        </mxCell>
        <mxCell id="faf0zKIODug6vjrXyhOL-53" value="open-vm-tools" style="rounded=0;whiteSpace=wrap;html=1;" vertex="1" parent="faf0zKIODug6vjrXyhOL-43">
          <mxGeometry x="380" y="20" width="120" height="60" as="geometry" />
        </mxCell>
        <mxCell id="faf0zKIODug6vjrXyhOL-56" style="edgeStyle=orthogonalEdgeStyle;rounded=0;orthogonalLoop=1;jettySize=auto;html=1;noEdgeStyle=1;orthogonal=1;" edge="1" parent="faf0zKIODug6vjrXyhOL-43" source="faf0zKIODug6vjrXyhOL-54" target="faf0zKIODug6vjrXyhOL-53">
          <mxGeometry relative="1" as="geometry">
            <Array as="points">
              <mxPoint x="342" y="82.5" />
              <mxPoint x="368" y="50" />
            </Array>
          </mxGeometry>
        </mxCell>
        <mxCell id="faf0zKIODug6vjrXyhOL-58" style="edgeStyle=orthogonalEdgeStyle;rounded=0;orthogonalLoop=1;jettySize=auto;html=1;noEdgeStyle=1;orthogonal=1;" edge="1" parent="faf0zKIODug6vjrXyhOL-43" source="faf0zKIODug6vjrXyhOL-54" target="faf0zKIODug6vjrXyhOL-52">
          <mxGeometry relative="1" as="geometry">
            <Array as="points">
              <mxPoint x="342" y="107.5" />
              <mxPoint x="368" y="140" />
            </Array>
          </mxGeometry>
        </mxCell>
        <mxCell id="faf0zKIODug6vjrXyhOL-54" value="systemd" style="rounded=0;whiteSpace=wrap;html=1;" vertex="1" parent="faf0zKIODug6vjrXyhOL-43">
          <mxGeometry x="210" y="65" width="120" height="60" as="geometry" />
        </mxCell>
        <mxCell id="faf0zKIODug6vjrXyhOL-59" style="edgeStyle=orthogonalEdgeStyle;rounded=0;orthogonalLoop=1;jettySize=auto;html=1;noEdgeStyle=1;orthogonal=1;" edge="1" parent="faf0zKIODug6vjrXyhOL-43" source="faf0zKIODug6vjrXyhOL-55" target="faf0zKIODug6vjrXyhOL-54">
          <mxGeometry relative="1" as="geometry">
            <Array as="points">
              <mxPoint x="172" y="95" />
              <mxPoint x="198" y="95" />
            </Array>
          </mxGeometry>
        </mxCell>
        <mxCell id="faf0zKIODug6vjrXyhOL-55" value="kernel" style="rounded=0;whiteSpace=wrap;html=1;" vertex="1" parent="faf0zKIODug6vjrXyhOL-43">
          <mxGeometry x="40" y="65" width="120" height="60" as="geometry" />
        </mxCell>
      </root>
    </mxGraphModel>
  </diagram>
</mxfile>
